Coordinates
version=1
nRows=8
nColumns=46
inDegrees=yes

Units are S.I. units (second, meters, Newtons, ...)
Angles are in degrees.

endheader
time	pelvis_tilt	pelvis_list	pelvis_rotation	pelvis_tx	pelvis_ty	pelvis_tz	bb_angle	bb_tx	bb_ty	bb_tz	hip_flexion_r	hip_adduction_r	hip_rotation_r	knee_angle_r	knee_angle_r_beta	ankle_angle_r	subtalar_angle_r	mtp_angle_r	crank_angle_r	hip_flexion_l	hip_adduction_l	hip_rotation_l	knee_angle_l	knee_angle_l_beta	ankle_angle_l	subtalar_angle_l	mtp_angle_l	crank_angle_l	lumbar_extension	lumbar_bending	lumbar_rotation	arm_flex_r	arm_add_r	arm_rot_r	elbow_flex_r	pro_sup_r	wrist_flex_r	wrist_dev_r	arm_flex_l	arm_add_l	arm_rot_l	elbow_flex_l	pro_sup_l	wrist_flex_l	wrist_dev_l
      7.50000000	    -27.07159213	     13.71274464	     10.91106357	      0.28701946	      1.13322699	     -0.27874007	      0.00000000	      0.50000000	      0.00000000	      0.25000000	     31.66360048	    -21.37537439	     -4.19905491	     21.38335056	      0.37320987	    -13.50284613	     -4.94513631	      0.00000000	      0.00000000	     83.81267495	      4.10666238	     -6.64676161	    110.22678866	      1.92382039	    -15.09308173	      3.27219627	      0.00000000	      0.00000000	    -60.22669435	     -7.36918733	      3.09027186	     21.38236921	    -44.40180217	    -11.08909705	    106.20707478	     50.74479545	      0.00000000	      0.00000000	     69.55164979	     -6.75586194	     43.38770545	     69.41145243	     51.04246182	      0.00000000	      0.00000000
      7.50500000	    -27.38991878	     13.62960115	     11.50416942	      0.28666586	      1.13485138	     -0.27705337	      0.00000000	      0.50000000	      0.00000000	      0.25000000	     31.14659920	    -21.57477109	     -4.64949761	     21.14312725	      0.36901718	    -14.58205488	     -4.13571460	      0.00000000	      0.00000000	     84.99559677	      4.11034723	     -6.70468456	    110.00331515	      1.91992004	    -15.22410550	      3.40056933	      0.00000000	      0.00000000	    -60.36831507	     -7.42148595	      2.67492117	     21.43643928	    -44.26755917	    -11.15147631	    106.10637294	     50.72390245	      0.00000000	      0.00000000	     70.01339094	     -6.63474239	     43.28010358	     69.66059748	     51.06514611	      0.00000000	      0.00000000
      7.51000000	    -27.42036899	     13.52969154	     12.50657889	      0.28648219	      1.13745870	     -0.27633534	      0.00000000	      0.50000000	      0.00000000	      0.25000000	     30.19818374	    -22.04022495	     -5.88337663	     21.04747503	      0.36734774	    -15.39121954	     -3.01249264	      0.00000000	      0.00000000	     85.73460121	      4.63560422	     -6.76233538	    109.53400870	      1.91172909	    -15.33064337	      3.34840797	      0.00000000	      0.00000000	    -60.74882991	     -6.79762104	      0.96462498	     23.94762975	    -42.87383703	     -9.31929664	    104.79289129	     50.73096864	      0.00000000	      0.00000000	     69.68417441	     -8.27823917	     42.65294841	     71.70863598	     51.33928151	      0.00000000	      0.00000000
      7.51500000	    -27.67912337	     13.32667848	     13.06821343	      0.28586431	      1.13972036	     -0.27507480	      0.00000000	      0.50000000	      0.00000000	      0.25000000	     29.95789833	    -22.07266279	     -6.03235755	     21.35171284	      0.37265769	    -16.40205959	     -2.73547115	      0.00000000	      0.00000000	     86.61931715	      4.78908340	     -6.74663211	    109.03240764	      1.90297450	    -15.06836655	      3.33408613	      0.00000000	      0.00000000	    -60.96589442	     -6.64241074	      0.72494825	     24.03337390	    -42.83246433	     -9.38607084	    104.70246588	     50.71002044	      0.00000000	      0.00000000	     70.10843756	     -8.14013268	     42.53841575	     71.86269316	     51.34563029	      0.00000000	      0.00000000
      7.52000000	    -28.03898264	     13.17126314	     13.89283192	      0.28492585	      1.14239580	     -0.27431720	      0.00000000	      0.50000000	      0.00000000	      0.25000000	     29.92705659	    -22.32839730	     -6.41037037	     21.92025714	      0.38258066	    -17.55886045	     -2.81150294	      0.00000000	      0.00000000	     87.40852743	      5.21707585	     -6.85497683	    108.23369189	      1.88903429	    -14.69589165	      3.40905560	      0.00000000	      0.00000000	    -61.12945061	     -6.28904218	      0.24870407	     24.31049393	    -42.71644422	     -9.63137708	    104.49602579	     50.65187400	      0.00000000	      0.00000000	     70.51811910	     -8.07948002	     42.38014450	     72.20422969	     51.37805331	      0.00000000	      0.00000000
      7.52500000	    -28.28765072	     13.00613366	     14.62377857	      0.28409361	      1.14532210	     -0.27321555	      0.00000000	      0.50000000	      0.00000000	      0.25000000	     30.00343112	    -22.47468894	     -6.65062654	     22.83873323	      0.39861109	    -18.64021177	     -3.30216972	      0.00000000	      0.00000000	     87.89014471	      5.57299482	     -6.94217890	    107.33084249	      1.87327659	    -14.03571930	      3.44188796	      0.00000000	      0.00000000	    -61.43088516	     -5.96299454	     -0.19744976	     24.68093592	    -42.47869101	     -9.83597630	    104.27071482	     50.59442514	      0.00000000	      0.00000000	     70.86243491	     -8.15793419	     42.23684053	     72.62383822	     51.42628522	      0.00000000	      0.00000000
      7.53000000	    -28.58627214	     12.78312768	     15.27304393	      0.28312291	      1.14838923	     -0.27182673	      0.00000000	      0.50000000	      0.00000000	      0.25000000	     30.35367121	    -22.45571015	     -6.56846508	     23.99903048	      0.41886210	    -19.88096995	     -4.35097569	      0.00000000	      0.00000000	     88.22935484	      5.79745587	     -7.03147857	    106.27011617	      1.85476342	    -13.09391026	      3.52129624	      0.00000000	      0.00000000	    -61.61857179	     -5.52639259	     -2.13758203	     28.23184704	    -40.78048248	     -6.99124031	    102.46048665	     50.61528244	      0.00000000	      0.00000000	     70.47962650	    -10.48750709	     41.21512842	     75.34516509	     51.73293774	      0.00000000	      0.00000000
      7.53500000	    -28.85942344	     12.47344050	     15.93236137	      0.28194873	      1.15147166	     -0.27087033	      0.00000000	      0.50000000	      0.00000000	      0.25000000	     30.89071220	    -22.42791584	     -6.52378541	     25.50810213	      0.44520037	    -20.98029620	     -5.19622958	      0.00000000	      0.00000000	     88.42041847	      6.15337809	     -7.03262974	    105.10473234	      1.83442364	    -11.92777920	      3.40264468	      0.00000000	      0.00000000	    -61.88803460	     -5.10408424	     -2.31845136	     28.58865865	    -40.88359366	     -7.21089867	    102.37912148	     50.57800703	      0.00000000	      0.00000000	     70.93451508	    -10.37888160	     41.03796314	     75.64425908	     51.75401890	      0.00000000	      0.00000000
